/* XPM */
static char * C:\dev\aqua_create_coin\marketcoin_images\marketcoin_images\share\pixmaps\bitcoin64_xpm[] = {
"64 64 376 2",
"  	c None",
". 	c #FFFFFF",
"+ 	c #FFFFF2",
"@ 	c #A99472",
"# 	c #14151E",
"$ 	c #E7FFFF",
"% 	c #94837E",
"& 	c #090000",
"* 	c #000000",
"= 	c #3F7391",
"- 	c #C0AFA0",
"; 	c #DAE2F5",
"> 	c #EBDDDE",
", 	c #C2C1C4",
"' 	c #D9DBDA",
") 	c #F8E1C3",
"! 	c #1B0E04",
"~ 	c #000016",
"{ 	c #937E69",
"] 	c #000028",
"^ 	c #FFFEF5",
"/ 	c #2E1400",
"( 	c #708CB4",
"_ 	c #FFFEF3",
": 	c #AB928B",
"< 	c #1F201A",
"[ 	c #477D96",
"} 	c #C29C7C",
"| 	c #A8D7E9",
"1 	c #AA927D",
"2 	c #D1F3FF",
"3 	c #8C7555",
"4 	c #A8E3FF",
"5 	c #3E1E0C",
"6 	c #000002",
"7 	c #C6CEC5",
"8 	c #FEF3E9",
"9 	c #786E58",
"0 	c #060000",
"a 	c #00000C",
"b 	c #826951",
"c 	c #AEC5E3",
"d 	c #E3D1AB",
"e 	c #5D7B8D",
"f 	c #91704F",
"g 	c #8CB6CF",
"h 	c #C39C6F",
"i 	c #7FBCF6",
"j 	c #816939",
"k 	c #98B9DA",
"l 	c #6B4230",
"m 	c #BBCEF2",
"n 	c #765F49",
"o 	c #97D5FF",
"p 	c #51381D",
"q 	c #D0F7FF",
"r 	c #0C0000",
"s 	c #171D16",
"t 	c #082733",
"u 	c #DDEFF3",
"v 	c #351F03",
"w 	c #A0C3D4",
"x 	c #FBD4AD",
"y 	c #DDFFFF",
"z 	c #CD997A",
"A 	c #040200",
"B 	c #45719C",
"C 	c #948262",
"D 	c #FFE5C7",
"E 	c #120600",
"F 	c #18436F",
"G 	c #587387",
"H 	c #6D3B35",
"I 	c #C8EBFF",
"J 	c #001232",
"K 	c #F6E7C1",
"L 	c #010000",
"M 	c #202734",
"N 	c #CCCEE6",
"O 	c #6B5A2A",
"P 	c #00001E",
"Q 	c #C4A58E",
"R 	c #AED1F0",
"S 	c #8492BB",
"T 	c #3C2B00",
"U 	c #00000E",
"V 	c #622913",
"W 	c #28557F",
"X 	c #D0A896",
"Y 	c #446892",
"Z 	c #FFEFE3",
"` 	c #05141D",
" .	c #B6D5E1",
"..	c #2F0400",
"+.	c #4B759D",
"@.	c #8A755A",
"#.	c #1C476D",
"$.	c #98C1E1",
"%.	c #FFFFFD",
"&.	c #124B75",
"*.	c #F7CD9B",
"=.	c #001336",
"-.	c #CFB380",
";.	c #BDE8FF",
">.	c #3B1200",
",.	c #0A0B0F",
"'.	c #030000",
").	c #75869C",
"!.	c #FFE6C0",
"~.	c #F3FFFF",
"{.	c #533B1D",
"].	c #223F54",
"^.	c #313B47",
"/.	c #F4FFFF",
"(.	c #000001",
"_.	c #C9E5FA",
":.	c #E4B186",
"<.	c #93B6D2",
"[.	c #110000",
"}.	c #F6FFFF",
"|.	c #815931",
"1.	c #000F30",
"2.	c #8D764A",
"3.	c #999385",
"4.	c #152E46",
"5.	c #E7F8FF",
"6.	c #572000",
"7.	c #1E4D7A",
"8.	c #FBDEC8",
"9.	c #1A0000",
"0.	c #6B7E94",
"a.	c #000624",
"b.	c #EAFBFF",
"c.	c #6F5931",
"d.	c #F0FFFF",
"e.	c #AC8C55",
"f.	c #73A9D5",
"g.	c #0D0000",
"h.	c #5F85AE",
"i.	c #F9E1C9",
"j.	c #586E77",
"k.	c #110400",
"l.	c #386389",
"m.	c #B3997C",
"n.	c #8192AE",
"o.	c #FFFAD0",
"p.	c #F7FFFF",
"q.	c #B89A81",
"r.	c #00000B",
"s.	c #AFCCE7",
"t.	c #13273F",
"u.	c #FFFFF7",
"v.	c #043669",
"w.	c #00153E",
"x.	c #F6C69A",
"y.	c #F2FFFF",
"z.	c #300500",
"A.	c #22396C",
"B.	c #FFFFE7",
"C.	c #EFFFFF",
"D.	c #542303",
"E.	c #041C38",
"F.	c #DFFAFF",
"G.	c #5B2C04",
"H.	c #19376E",
"I.	c #9E8145",
"J.	c #314957",
"K.	c #FDFFFF",
"L.	c #C39C77",
"M.	c #97BFE7",
"N.	c #955D31",
"O.	c #CAEAFF",
"P.	c #633A08",
"Q.	c #0C2A5D",
"R.	c #A36C50",
"S.	c #000A22",
"T.	c #6B4820",
"U.	c #567995",
"V.	c #351200",
"W.	c #556D85",
"X.	c #FFF7C9",
"Y.	c #0B0904",
"Z.	c #868FAB",
"`.	c #532A02",
" +	c #EBFAE5",
".+	c #1D4871",
"++	c #FFFFEF",
"@+	c #99CDFF",
"#+	c #FFFFD8",
"$+	c #DEFFFF",
"%+	c #E4CF9E",
"&+	c #000008",
"*+	c #E6D8BA",
"=+	c #A3BED5",
"-+	c #4F2D0B",
";+	c #001329",
">+	c #E0F7FF",
",+	c #FFD7AA",
"'+	c #14517E",
")+	c #7A512D",
"!+	c #E8FFFF",
"~+	c #A57C4F",
"{+	c #000011",
"]+	c #320600",
"^+	c #6E9AB4",
"/+	c #2A0000",
"(+	c #5E7B9F",
"_+	c #655315",
":+	c #5C6B81",
"<+	c #7C603C",
"[+	c #726F5F",
"}+	c #4C77A0",
"|+	c #020000",
"1+	c #598ABA",
"2+	c #E3AA70",
"3+	c #042335",
"4+	c #C58F6E",
"5+	c #FFFFF0",
"6+	c #120000",
"7+	c #B3D0EF",
"8+	c #FFFFE1",
"9+	c #000003",
"0+	c #1B1311",
"a+	c #F9FFFF",
"b+	c #D4A47B",
"c+	c #EBFFFF",
"d+	c #FFFFFB",
"e+	c #3D607E",
"f+	c #FFFFD5",
"g+	c #82B1E0",
"h+	c #9A775B",
"i+	c #6583B0",
"j+	c #240000",
"k+	c #275980",
"l+	c #764C16",
"m+	c #6F9BC4",
"n+	c #A27851",
"o+	c #C4EEFF",
"p+	c #552C0E",
"q+	c #000007",
"r+	c #0F0000",
"s+	c #E3B48B",
"t+	c #7C7986",
"u+	c #000F22",
"v+	c #FFFFFA",
"w+	c #0F3658",
"x+	c #140000",
"y+	c #5E91B8",
"z+	c #B49775",
"A+	c #5C7FA7",
"B+	c #2A0C00",
"C+	c #000015",
"D+	c #1B0902",
"E+	c #CAF9FF",
"F+	c #A27B51",
"G+	c #819DCA",
"H+	c #150000",
"I+	c #000010",
"J+	c #1E0100",
"K+	c #EEC89A",
"L+	c #2A5E93",
"M+	c #FBFFFF",
"N+	c #65391F",
"O+	c #C19E81",
"P+	c #567B99",
"Q+	c #2F1100",
"R+	c #DDB38C",
"S+	c #264266",
"T+	c #1E0000",
"U+	c #E5FFFF",
"V+	c #2A0900",
"W+	c #D8FFFF",
"X+	c #F4CE94",
"Y+	c #6CA1CA",
"Z+	c #623505",
"`+	c #7288B6",
" @	c #BA8D69",
".@	c #738796",
"+@	c #EEFFFF",
"@@	c #C0A183",
"#@	c #3B5A7E",
"$@	c #3B2000",
"%@	c #00001D",
"&@	c #FFFFFC",
"*@	c #CEFFFF",
"=@	c #FBFCF8",
"-@	c #FFFFDD",
";@	c #360600",
">@	c #BDDEFF",
",@	c #FFD9AF",
"'@	c #A8D2F7",
")@	c #F5CEAA",
"!@	c #000023",
"~@	c #F1DEB7",
"{@	c #5B696F",
"]@	c #916B34",
"^@	c #6C97C6",
"/@	c #FFFFE5",
"(@	c #E1FEFF",
"_@	c #C6A485",
":@	c #144160",
"<@	c #644129",
"[@	c #00244B",
"}@	c #AD805A",
"|@	c #0D3238",
"1@	c #FFF6E8",
"2@	c #7B89B3",
"3@	c #FFF9D9",
"4@	c #FFFFE3",
"5@	c #DAF9FF",
"6@	c #754A0E",
"7@	c #9FC1E5",
"8@	c #DAFAFF",
"9@	c #7C5936",
"0@	c #333766",
"a@	c #FFECCC",
"b@	c #123163",
"c@	c #68351F",
"d@	c #7A9FCB",
"e@	c #FFFFDF",
"f@	c #DAF4FF",
"g@	c #7B642D",
"h@	c #000F36",
"i@	c #FFFFC9",
"j@	c #154874",
"k@	c #654F1C",
"l@	c #1F3656",
"m@	c #FEE4C9",
"n@	c #00051A",
"o@	c #F8FFFF",
"p@	c #FFE0BC",
"q@	c #FFFFE2",
"r@	c #D4EFFF",
"s@	c #B38E7D",
"t@	c #7596B3",
"u@	c #FFFFD1",
"v@	c #EAFFFF",
"w@	c #C1D3E6",
"x@	c #B9A78C",
"y@	c #D5EAFA",
"z@	c #4A2C0E",
"A@	c #00173F",
"B@	c #000414",
"C@	c #FFECC9",
"D@	c #00000F",
"E@	c #4871A2",
"F@	c #7D5635",
"G@	c #A9D4F0",
"H@	c #DBAC93",
"I@	c #DADFFF",
"J@	c #FFFCE2",
"K@	c #070000",
"L@	c #476C8F",
"M@	c #5E2F0A",
"N@	c #6F8EAB",
"O@	c #371F00",
"P@	c #D9B082",
"Q@	c #95C1D9",
"R@	c #71652F",
"S@	c #688CC3",
"T@	c #FFFDE5",
"U@	c #0E0000",
"V@	c #00082C",
"W@	c #AE8768",
"X@	c #8BBBD8",
"Y@	c #ADD5F1",
"Z@	c #A09378",
"`@	c #58697C",
" #	c #FFFDDD",
".#	c #322223",
"+#	c #3D455B",
"@#	c #EBFDFF",
"##	c #FFF4DB",
"$#	c #FAFFFF",
"%#	c #FAF3DA",
"&#	c #363B61",
". . . . . . . . . . . . . . . . . . . . . . . . . . . . . . . . . . . . . . . . . . . . . . . . . . . . . . . . . . . . . . . . ",
". . . . . . . . . . . . . . . . . . . . . . . . . . . . . . . . . . . . . . . . . . . . . . . . . . . . . . . . . . . . . . . . ",
". . . . . . . . . . . . . . . . . . . . . . . . . . . . . . . . . . . . . . . . . . . . . . . . . . . . . . . . . . . . . . . . ",
". . . . . . . . . . . . . . . . . . . . . . . . . . . . . . . . . . . . . . . . . . . . . . . . . . . . . . . . . . . . . . . . ",
". . . . . . . . . . . . . . . . . . . . . . . . . . . . . . . . . . . . . . . . . . . . . . . . . . . . . . . . . . . . . . . . ",
". . . . . . . . . . . . . . . . . . . . . . . . . . . . . . . . . . . . . . . . . . . . . . . . . . . . . . . . . . . . . . . . ",
". . . . . . . . . . . . . . . . . . . . . . . . . . . . . . . . . . . . . . . . . . . . . . . . . . . . . . . . . . . . . . . . ",
". . . . . . . . . . . . . . . . . . . . . . . . . . . . . . . . . . . . . . . . . . . . . . . . . . . . . . . . . . . . . . . . ",
". . . . . . . . . . . . . . . . . . . . . . . . . . . . . . . . . . . . . . . . . . . . . . . . . . . . . . . . . . . . . . . . ",
". . . . . . . . . . . . . . . . . . . . . . . . . . . . . . . . . . . . . . . . . . . . . . . . . . . . . . . . . . . . . . . . ",
". . . . . . . . . . . . . . . . . . . . . . . . . . . . . . . . . . . . . . . . . . . . . . . . . . . . . . . . . . . . . . . . ",
". . . . . . . . . . . . . . . . . . . . . . . . . . . . . . . . . . . . . . . . . . . . . . . . . . . . . . . . . . . . . . . . ",
". . . . . . . . . . . . . . . . . . . . . . . . . . . . . . . . . . . . . . . . . . . . . . . . . . . . . . . . . . . . . . . . ",
". . . . . . . . . . . . . . . . . . . . . . . . . . . . . . . . . . . . . . . . . . . . . . . . . . . . . . . . . . . . . . . . ",
". . . . . . . . . . . . . + @ # $ . . . . . . . . . . . . . . . . . . . . . . . . . . . . . . . . . . . . . . . . . . . . . . . ",
". . . . . . . . . . . . % & * * = . . . . . . . - ; . . . . . . . . . . . . . . . . . . . > , . . . . . . . . . . . . . . . . . ",
". . . . . . . . ' . ) ! * * * * ~ . . . . . . { * ] . . . . . . ^ / ( . . . . . . . _ : < * * [ . . . . . . . . . . . . . . . . ",
". . . . . . . } | 1 * * * * * * * 2 . . . . 3 * * * 4 . . . . . 5 * 6 . . 7 . . 8 9 0 * * * * a . . . . . . . . b c . . . . . . ",
". . . . . . d e f * * * * * * * * g . . . h * * * * i . . . . j * * * k l m _ n * * * * * * * * o . . . . . . p * q . . . . . . ",
". . . . . . r s * * * * * t u v * w . . x * * * * * y . . . z * * * * A B C * * * * * * * * * * o . . . . D E * F . . . . . . . ",
". . . . . . * * * * * * G . . H * I . . * * * * * J . . . K * * * * * * L * * * * * * * M N O P . . . . Q * * * R . . . . . . . ",
". . . . . . * * * * * S . . . T U . . V * W X * * Y . . Z * * * * * * * * * * * * * `  .. . ..+.. . . @.* * * #.. . . . . . . . ",
". . . . . . * * * * $.. . . %.* &.. *.* =.. -.* * ;.. . >.* * * * ,.'.* * * * * * ).. . . !.* ~.. . {.* * ].^./.. . . . . . . . ",
". . . . . . * * (._.. . . . :.* <.. [.* }.. |.* 1.. . 2.* * * * * 3.* * * * * 4.5.. . . . 6.7.. 8.9.* * 0.. . . . . . . . . . . ",
". . . . . . * a.b.. . . . . c.* d.e.* f.. . g.* h.. i.* * j.k.* l.m.* * * * n.. . . . . o.* p.q.* * r.s.. . . . . . . . . . . . ",
". . . . . . t.. . . . . . u.* v.. * w.. . x.* * y.. z.* A.B.* * C.D.* * E.F.. . . . . . G.H.I.* * J.K.. . . . . . . . . . . . . ",
". . . . . . . . . . . . . L.* M.N.* O.. . P.* Q.. R.* S.. T.* U.. V.* W.. . . . . . . X.* Y.* * Z.. . . . . . . . . . . . . . . ",
". . . . . . . . . . . . . `.*  +* .+. . ++* * @+#+* * $+%+* &+y.. *+=+. . . . . . . . -+* * ;+>+. . . . . . . . . . . . . . . . ",
". . . . . . . . . . . . ,+* '+)+* !+. . ~+* {+. ]+* ^+. /+* (+. . . . . . . . . . . _+* * :+. . . . . . . . . . . . . . . . . . ",
". . . . . . . . . . . . <+* [+* }+. . . |+* 1+2+* 3+. 4+* * $ . . . . . . . . . 5+6+* * 7+. . . . . . . . . . . . . . . . . . . ",
". . . . . . . . . . . 8+* 9+0+* a+. . b+* * . * * c+d+* * e+. . . . . . . . . f+* * * g+. . . . . . . . . . . . . . . . . . . . ",
". . . . . . . . . . . h+* * * i+. . . j+* k+l+* m+. n+* * o+. . . . . . . . . p+* * q+. . . . . . . . . . . . . . . . . . . . . ",
". . . . . . . . . . %.r+* * * . . . s+* * t+* u+. v+* * w+. . . . . . . . . . x+* * y+. . . . . . . . . . . . . . . . . . . . . ",
". . . . . . . . . . z+* * * A+. . . B+* C+D+* E+. F+* * G+. . . . . . . . . . H+* * I+d.. . . . . . . . . . . . . . . . . . . . ",
". . . . . . . . . . J+* * * C.. . K+* * * * L+. . * * * M+. . . . . . . . . . N+* * * * c+. . . . . . . . . . . . . . . . . . . ",
". . . . . . . . . O+* * * P+. . . Q+* * * * . . R+* * S+. . . . . . . . . . . T+* * * * * U+. . . . . . . . . . . . . . . . . . ",
". . . . . . . . . V+* * * W+. . X+* * * * Y+. . Z+* * `+. . . . . . . . . .  @* .@L * * * * +@. . . . . . . . . . . . . . . . . ",
". . . . . . . . @@* * * #@. . . $@* * * %@. . &@* * * *@. . . . . =@. . . . L * . -@* * * * * !+. . . . . . . . . . . . . . . . ",
". . . . . . . . ;@* * * >@. . ,@* * * * '@. . )@* * !@. . . . . ~@{@. . . ]@* ^@. . /@* * * * * (@. . . . . . . . . . . . . . . ",
". . . . . . . _@* * * :@. . . <@* * * [@. . . }@* * |@. . . . 1@* 2@. . 3@* U . . . . 4@* * * * * 5@. . . . . . . . . . . . . . ",
". . . . . . . 6@* * * 7@. . &@L * * * 8@. . . 9@* * 0@. . . a@* b@. . . c@* d@. . . . . e@* * * * * f@. . . . . . . . . . . . . ",
". . . . . . . g@* * h@. . . i@* * * j@. . . . k@* * l@. . m@* n@o@. . p@* * $+. . . . . . q@L * * * * r@. . . . . . . . . . . . ",
". . . . . . . s@* * t@. . . u@* * * v@. . . . k@* * * w@x@* * y@. . . z@* A@. . . . . . . . q@* * * * B@/.. . . . . . . . . . . ",
". . . . . . . C@* D@. . . . . g.* E@. . . . . F@* * * * * * G@. . . H@* * I@. . . . . . . . . J@K@* * * L@. . . . . . . . . . . ",
". . . . . . . . M@N@. . . . . O@* . . . . . . P@* * * * * Q@. . . . R@* S@. . . . . . . . . . . T@U@* * V@. . . . . . . . . . . ",
". . . . . . . . . . . . . . . W@X@. . . . . . . '.* * * Y@. . . . . Z@`@. . . . . . . . . . . . .  #* * r.p.. . . . . . . . . . ",
". . . . . . . . . . . . . . . . . . . . . . . . 4@.#+#@#. . . . . . . . . . . . . . . . . . . . . . ##* 9+$#. . . . . . . . . . ",
". . . . . . . . . . . . . . . . . . . . . . . . . . . . . . . . . . . . . . . . . . . . . . . . . . . %#&#. . . . . . . . . . . ",
". . . . . . . . . . . . . . . . . . . . . . . . . . . . . . . . . . . . . . . . . . . . . . . . . . . . . . . . . . . . . . . . ",
". . . . . . . . . . . . . . . . . . . . . . . . . . . . . . . . . . . . . . . . . . . . . . . . . . . . . . . . . . . . . . . . ",
". . . . . . . . . . . . . . . . . . . . . . . . . . . . . . . . . . . . . . . . . . . . . . . . . . . . . . . . . . . . . . . . ",
". . . . . . . . . . . . . . . . . . . . . . . . . . . . . . . . . . . . . . . . . . . . . . . . . . . . . . . . . . . . . . . . ",
". . . . . . . . . . . . . . . . . . . . . . . . . . . . . . . . . . . . . . . . . . . . . . . . . . . . . . . . . . . . . . . . ",
". . . . . . . . . . . . . . . . . . . . . . . . . . . . . . . . . . . . . . . . . . . . . . . . . . . . . . . . . . . . . . . . ",
". . . . . . . . . . . . . . . . . . . . . . . . . . . . . . . . . . . . . . . . . . . . . . . . . . . . . . . . . . . . . . . . ",
". . . . . . . . . . . . . . . . . . . . . . . . . . . . . . . . . . . . . . . . . . . . . . . . . . . . . . . . . . . . . . . . ",
". . . . . . . . . . . . . . . . . . . . . . . . . . . . . . . . . . . . . . . . . . . . . . . . . . . . . . . . . . . . . . . . ",
". . . . . . . . . . . . . . . . . . . . . . . . . . . . . . . . . . . . . . . . . . . . . . . . . . . . . . . . . . . . . . . . ",
". . . . . . . . . . . . . . . . . . . . . . . . . . . . . . . . . . . . . . . . . . . . . . . . . . . . . . . . . . . . . . . . ",
". . . . . . . . . . . . . . . . . . . . . . . . . . . . . . . . . . . . . . . . . . . . . . . . . . . . . . . . . . . . . . . . ",
". . . . . . . . . . . . . . . . . . . . . . . . . . . . . . . . . . . . . . . . . . . . . . . . . . . . . . . . . . . . . . . . ",
". . . . . . . . . . . . . . . . . . . . . . . . . . . . . . . . . . . . . . . . . . . . . . . . . . . . . . . . . . . . . . . . ",
". . . . . . . . . . . . . . . . . . . . . . . . . . . . . . . . . . . . . . . . . . . . . . . . . . . . . . . . . . . . . . . . ",
". . . . . . . . . . . . . . . . . . . . . . . . . . . . . . . . . . . . . . . . . . . . . . . . . . . . . . . . . . . . . . . . "};
