/* XPM */
static char * C:\dev\aqua_create_coin\marketcoin_images\marketcoin_images\share\pixmaps\bitcoin16_xpm[] = {
"16 16 65 1",
" 	c None",
".	c #FFFFFF",
"+	c #A29E9C",
"@	c #DFDDD6",
"#	c #28231D",
"$	c #000000",
"%	c #B3C0CA",
"&	c #8E7C68",
"*	c #535F61",
"=	c #010106",
"-	c #E6E3E2",
";	c #403932",
">	c #D2C9C1",
",	c #AFBAC1",
"'	c #656564",
")	c #131821",
"!	c #FFEDDF",
"~	c #87919C",
"{	c #493E30",
"]	c #B2BCCD",
"^	c #15110A",
"/	c #647076",
"(	c #B8B5BA",
"_	c #C9BEB7",
":	c #010C14",
"<	c #B1B5BD",
"[	c #878681",
"}	c #757B7E",
"|	c #676F77",
"1	c #85766C",
"2	c #4E5555",
"3	c #777371",
"4	c #D9E1E7",
"5	c #A6ACB2",
"6	c #291F1B",
"7	c #919597",
"8	c #6B7B80",
"9	c #171A20",
"0	c #97928E",
"a	c #585F68",
"b	c #907E71",
"c	c #2F3A44",
"d	c #4F473F",
"e	c #E1D3D2",
"f	c #000E17",
"g	c #C9CBCC",
"h	c #595A56",
"i	c #C2C4BA",
"j	c #FBF0D9",
"k	c #2C3542",
"l	c #C9C7BB",
"m	c #3B4852",
"n	c #FFF2DD",
"o	c #141926",
"p	c #3F474C",
"q	c #ECE5E4",
"r	c #535D68",
"s	c #BAB9A9",
"t	c #F7F5F4",
"u	c #EFE5DE",
"v	c #F0F6FB",
"w	c #3E3E3B",
"x	c #B2B1A8",
"y	c #A59F8F",
"z	c #9DA1AC",
"................",
"................",
"................",
"...+............",
".@#$%&*.=-;$.>,.",
".')!~{]^$$/(_:..",
".<.[}|1234.$5...",
"...$.678..9.....",
"..0abcd..e$.....",
"..$.$.f.ghi$....",
".jklmnopqr.s$...",
"..tuv.w.x...yz..",
"................",
"................",
"................",
"................"};
