/* XPM */
static char * C:\dev\aqua_create_coin\marketcoin_images\marketcoin_images\share\pixmaps\bitcoin32_xpm[] = {
"32 32 154 2",
"  	c None",
". 	c #FFFFFF",
"+ 	c #B4ABA5",
"@ 	c #000000",
"# 	c #D9F5FF",
"$ 	c #F9F6F6",
"% 	c #FFF4E9",
"& 	c #E4F1F3",
"* 	c #2E2011",
"= 	c #6C747E",
"- 	c #8B7B66",
"; 	c #351D0B",
"> 	c #9BA6B7",
", 	c #FEF7EC",
"' 	c #655A54",
") 	c #C2BFBF",
"! 	c #43473F",
"~ 	c #120400",
"{ 	c #47453B",
"] 	c #2B4654",
"^ 	c #C6A786",
"/ 	c #E4FFFF",
"( 	c #9D8163",
"_ 	c #17222B",
": 	c #91929D",
"< 	c #5C5345",
"[ 	c #D0FFFF",
"} 	c #342415",
"| 	c #557487",
"1 	c #00000B",
"2 	c #BEA493",
"3 	c #5C6873",
"4 	c #FFF5EC",
"5 	c #403028",
"6 	c #000013",
"7 	c #DACFBD",
"8 	c #0F2026",
"9 	c #F0F5FF",
"0 	c #0E0509",
"a 	c #FFFFFB",
"b 	c #0F181F",
"c 	c #675340",
"d 	c #C2E8FF",
"e 	c #100000",
"f 	c #E8F6FF",
"g 	c #523712",
"h 	c #63788E",
"i 	c #2B2B28",
"j 	c #A2AEB7",
"k 	c #ECCDB1",
"l 	c #7995AC",
"m 	c #F2DCD2",
"n 	c #526677",
"o 	c #E0E5E7",
"p 	c #071125",
"q 	c #D0C4AA",
"r 	c #304F73",
"s 	c #260900",
"t 	c #6F8598",
"u 	c #B3AEA8",
"v 	c #192B37",
"w 	c #3E3A34",
"x 	c #B8A280",
"y 	c #BCC7D6",
"z 	c #CFB297",
"A 	c #677D87",
"B 	c #9C8C72",
"C 	c #032650",
"D 	c #D4BB9B",
"E 	c #081F2E",
"F 	c #BEA782",
"G 	c #35495A",
"H 	c #DEC9B5",
"I 	c #64798C",
"J 	c #F9EACE",
"K 	c #051623",
"L 	c #4E361A",
"M 	c #323633",
"N 	c #869EAE",
"O 	c #BEBCBD",
"P 	c #EEFFFF",
"Q 	c #E3DCD8",
"R 	c #8193A9",
"S 	c #FFFFEA",
"T 	c #D3B4A5",
"U 	c #00000C",
"V 	c #604A33",
"W 	c #AAC6DA",
"X 	c #685442",
"Y 	c #1E3B4B",
"Z 	c #EDE0C5",
"` 	c #5B6B7F",
" .	c #6B5D51",
"..	c #9FAAB8",
"+.	c #280E00",
"@.	c #292029",
"#.	c #051E28",
"$.	c #ADC4E1",
"%.	c #807578",
"&.	c #B1C8DB",
"*.	c #000005",
"=.	c #E1C9B5",
"-.	c #F9FFFF",
";.	c #78695A",
">.	c #B9A098",
",.	c #CEDFDF",
"'.	c #786255",
").	c #869FAA",
"!.	c #392202",
"~.	c #4B5E76",
"{.	c #435D6E",
"].	c #C5CDC7",
"^.	c #D0DFDF",
"/.	c #F7DAC2",
"(.	c #FFE9CF",
"_.	c #88939E",
":.	c #333638",
"<.	c #A79775",
"[.	c #33445D",
"}.	c #DFDFCB",
"|.	c #C6DDDF",
"1.	c #BDA87F",
"2.	c #5F6F8A",
"3.	c #747765",
"4.	c #7A97A9",
"5.	c #C0AE94",
"6.	c #A7B1CE",
"7.	c #CDDCF0",
"8.	c #F2FFFF",
"9.	c #DFDFC9",
"0.	c #C1D5DE",
"a.	c #FFF8E7",
"b.	c #FEFFFF",
"c.	c #7B7768",
"d.	c #BEAB8F",
"e.	c #30363C",
"f.	c #A1BACC",
"g.	c #7C5F4B",
"h.	c #02102C",
"i.	c #DFDEC9",
"j.	c #E6F7FF",
"k.	c #ACA6A3",
"l.	c #B19781",
"m.	c #9AADB8",
"n.	c #FFFFFD",
"o.	c #93B3C7",
"p.	c #1B1902",
"q.	c #F4FFFF",
"r.	c #E4DEC9",
"s.	c #717684",
"t.	c #D8D2C7",
"u.	c #D5DFE9",
"v.	c #CCC4B1",
"w.	c #6A6E7D",
". . . . . . . . . . . . . . . . . . . . . . . . . . . . . . . . ",
". . . . . . . . . . . . . . . . . . . . . . . . . . . . . . . . ",
". . . . . . . . . . . . . . . . . . . . . . . . . . . . . . . . ",
". . . . . . . . . . . . . . . . . . . . . . . . . . . . . . . . ",
". . . . . . . . . . . . . . . . . . . . . . . . . . . . . . . . ",
". . . . . . . . . . . . . . . . . . . . . . . . . . . . . . . . ",
". . . . . . . . . . . . . . . . . . . . . . . . . . . . . . . . ",
". . . . . . + @ # . . . $ . . . . . . . . . . . . . . . . . . . ",
". . . % & * @ @ = . . - @ . . . ; > . . , ' @ @ . . . . ) . . . ",
". . . ! ~ @ @ { ] . ^ @ @ / . ( @ _ : < @ @ @ @ [ . . } | . . . ",
". . . @ @ 1 . 2 3 4 @ 5 6 . 7 @ @ @ @ @ @ 8 9 0 . a @ @ . . . . ",
". . . @ b . . c d e f g h . @ @ i @ @ @ j . k l m @ n o . . . . ",
". . . p . . . @ q r . @ . s t @ u @ v . . . w x @ y . . . . . . ",
". . . . . . z A @ . B C D E F G H I . . . J @ K . . . . . . . . ",
". . . . . . L M N . @ O @ . @ P . . . . Q @ R . . . . . . . . . ",
". . . . . S @ 1 . T U V W X Y . . . . Z @ ` . . . . . . . . . . ",
". . . . .  .@ ... +.@.#.. @ $.. . . . %.@ &.. . . . . . . . . . ",
". . . . . @ *.. =.@ @ -.;.@ . . . . . >.@ @ ,.. . . . . . . . . ",
". . . . '.@ ).. !.@ ~.. @ {.. . . . . @ ].@ @ ^.. . . . . . . . ",
". . . . @ @ . /.@ @ . (.@ _.. . :.. <.[.. }.@ @ |.. . . . . . . ",
". . . 1.@ 2.. 3.@ 4.. 5.@ 6.. @ 7.. @ 8.. . 9.@ @ 0.. . . . . . ",
". . . a.@ b.. c.@ . . d.@ e.@ f.. g.h.. . . . i.@ @ j.. . . . . ",
". . . . k.. . l.m.. . n.@ @ o.. . p.q.. . . . . r.@ s.. . . . . ",
". . . . . . . . . . . . t.u.. . . . . . . . . . . v.w.. . . . . ",
". . . . . . . . . . . . . . . . . . . . . . . . . . . . . . . . ",
". . . . . . . . . . . . . . . . . . . . . . . . . . . . . . . . ",
". . . . . . . . . . . . . . . . . . . . . . . . . . . . . . . . ",
". . . . . . . . . . . . . . . . . . . . . . . . . . . . . . . . ",
". . . . . . . . . . . . . . . . . . . . . . . . . . . . . . . . ",
". . . . . . . . . . . . . . . . . . . . . . . . . . . . . . . . ",
". . . . . . . . . . . . . . . . . . . . . . . . . . . . . . . . ",
". . . . . . . . . . . . . . . . . . . . . . . . . . . . . . . . "};
